<svg xmlns="http://www.w3.org/2000/svg" xmlns:xlink="http://www.w3.org/1999/xlink" width="500" zoomAndPan="magnify" viewBox="0 0 375 374.999991" height="500" preserveAspectRatio="xMidYMid meet" version="1.0"><defs><clipPath id="c09443700d"><path d="M 0 120 L 185 120 L 185 374.683594 L 0 374.683594 Z M 0 120 " clip-rule="nonzero"/></clipPath><clipPath id="dd410b1d50"><path d="M 11 73.183594 L 44 73.183594 L 44 146 L 11 146 Z M 11 73.183594 " clip-rule="nonzero"/></clipPath><clipPath id="318425e555"><path d="M 133 73.183594 L 166 73.183594 L 166 146 L 133 146 Z M 133 73.183594 " clip-rule="nonzero"/></clipPath><clipPath id="8e9747e30d"><path d="M 303 22.167969 L 326 22.167969 L 326 45 L 303 45 Z M 303 22.167969 " clip-rule="nonzero"/></clipPath><clipPath id="152bb54d0d"><path d="M 222 22.167969 L 245 22.167969 L 245 45 L 222 45 Z M 222 22.167969 " clip-rule="nonzero"/></clipPath></defs><g clip-path="url(#c09443700d)"><path fill="#ffffff" d="M 42.925781 194.859375 C 42.925781 194.859375 49.671875 224.273438 88.507812 224.585938 C 127.34375 224.273438 134.085938 194.859375 134.085938 194.859375 C 134.085938 216.59375 113.761719 234.238281 88.507812 234.695312 C 63.25 234.238281 42.929688 216.59375 42.925781 194.859375 Z M 74.84375 187.996094 C 74.84375 187.996094 53.800781 196.761719 47.375 168.707031 Z M 128.683594 168.707031 C 122.253906 196.761719 101.21875 187.996094 101.21875 187.996094 Z M 126.445312 259.992188 L 116.199219 255.574219 L 125.640625 249.621094 C 146.175781 236.671875 158.433594 214.601562 158.433594 190.582031 C 158.433594 170.910156 150.242188 153.144531 137.125 140.425781 L 137.125 140.429688 L 137.121094 140.425781 C 133.519531 136.933594 129.53125 133.855469 125.25 131.195312 C 114.558594 124.558594 101.996094 120.65625 88.511719 120.65625 C 69.632812 120.65625 52.5 128.207031 39.90625 140.414062 C 39.90625 140.414062 39.902344 140.414062 39.902344 140.417969 L 39.902344 140.414062 C 26.777344 153.132812 18.574219 170.90625 18.574219 190.582031 C 18.574219 214.601562 30.832031 236.671875 51.367188 249.621094 L 60.808594 255.574219 L 50.5625 259.992188 C 15.382812 275.179688 -7.34375 309.730469 -7.34375 348.003906 L -7.34375 374.9375 L 184.359375 374.9375 L 184.359375 348.003906 C 184.359375 345.226562 183.992188 342.527344 183.757812 339.792969 C 180.746094 304.878906 159.074219 274.085938 126.445312 259.992188 " fill-opacity="1" fill-rule="nonzero"/></g><path fill="#ffffff" d="M 244.570312 249.316406 L 251.804688 172.5625 L 182.402344 204.421875 L 205.242188 220.914062 C 195.789062 240.792969 193.734375 263.46875 200.261719 287.265625 C 205.09375 304.882812 200.34375 318.535156 194.035156 328.054688 C 195.269531 334.582031 196.128906 341.207031 196.128906 348.003906 L 196.128906 352.484375 C 210.390625 339.679688 226.195312 315.097656 217.289062 282.601562 C 211.578125 261.789062 213.871094 244.824219 219.636719 231.308594 L 244.570312 249.316406 " fill-opacity="1" fill-rule="nonzero"/><g clip-path="url(#dd410b1d50)"><path fill="#ffffff" d="M 43.746094 122.324219 C 24.894531 99.28125 26.316406 81.84375 28.226562 74.578125 C 28.449219 73.730469 27.316406 73.195312 26.734375 73.847656 C 2.523438 101.046875 13.78125 132.226562 20.460938 145.472656 C 26.578125 136.273438 34.515625 128.398438 43.746094 122.324219 " fill-opacity="1" fill-rule="nonzero"/></g><g clip-path="url(#318425e555)"><path fill="#ffffff" d="M 156.550781 145.472656 C 163.226562 132.230469 174.492188 101.046875 150.277344 73.847656 C 149.695312 73.195312 148.5625 73.730469 148.785156 74.578125 C 150.695312 81.84375 152.121094 99.28125 133.269531 122.324219 C 142.496094 128.398438 150.433594 136.273438 156.550781 145.472656 " fill-opacity="1" fill-rule="nonzero"/></g><path fill="#ffffff" d="M 273.902344 54.054688 C 277.207031 51.519531 280.265625 48.847656 283.632812 46.65625 C 293.039062 40.535156 303.34375 37.84375 314.429688 40.445312 C 327.945312 43.617188 336.660156 52.300781 340.933594 65.398438 C 345.207031 78.496094 343.371094 91.28125 338.488281 103.773438 C 332.84375 118.214844 323.152344 129.660156 311.34375 139.441406 C 300.480469 148.433594 288.464844 155.527344 275.53125 161.101562 C 275.0625 161.324219 274.574219 161.433594 274.058594 161.429688 C 273.542969 161.429688 273.050781 161.3125 272.589844 161.085938 C 258.738281 155.214844 246.011719 147.523438 234.644531 137.652344 C 223.347656 127.84375 214.152344 116.445312 208.960938 102.203125 C 204.667969 90.464844 203.195312 78.449219 206.792969 66.257812 C 212 48.640625 227.855469 37.59375 246.175781 39.84375 C 256.542969 41.121094 265.066406 46.046875 272.597656 52.996094 C 272.980469 53.347656 273.375 53.6875 273.777344 54.015625 C 273.855469 54.082031 273.992188 54.078125 273.902344 54.054688 Z M 273.902344 54.054688 " fill-opacity="1" fill-rule="nonzero"/><g clip-path="url(#8e9747e30d)"><path fill="#ffffff" d="M 306.457031 44.394531 C 307.582031 43.191406 308.632812 41.925781 309.605469 40.597656 C 311.757812 37.773438 313.589844 34.753906 315.105469 31.542969 C 316.175781 29.292969 317.027344 26.960938 317.664062 24.546875 L 315.050781 25.613281 C 315.429688 25.785156 315.792969 25.988281 316.144531 26.210938 C 316.546875 26.449219 316.925781 26.707031 317.28125 26.976562 C 317.339844 27.019531 317.394531 27.066406 317.449219 27.105469 C 317.378906 27.054688 317.066406 26.804688 317.285156 26.976562 C 317.402344 27.070312 317.519531 27.164062 317.632812 27.265625 C 317.859375 27.453125 318.082031 27.652344 318.296875 27.863281 C 318.777344 28.328125 319.226562 28.820312 319.644531 29.339844 C 319.6875 29.390625 319.371094 28.96875 319.589844 29.269531 L 319.734375 29.464844 C 319.84375 29.621094 319.957031 29.785156 320.0625 29.945312 C 320.261719 30.246094 320.453125 30.582031 320.625 30.910156 C 320.714844 31.078125 320.804688 31.253906 320.882812 31.425781 C 320.921875 31.507812 320.957031 31.59375 320.996094 31.675781 C 321.152344 32.015625 320.859375 31.316406 320.996094 31.675781 C 321.136719 32.03125 321.285156 32.445312 321.394531 32.84375 C 321.519531 33.277344 321.621094 33.714844 321.695312 34.160156 C 321.714844 34.261719 321.71875 34.367188 321.742188 34.460938 C 321.742188 34.480469 321.699219 34.054688 321.714844 34.25 C 321.714844 34.304688 321.726562 34.355469 321.730469 34.40625 C 321.757812 34.660156 321.777344 34.914062 321.792969 35.164062 C 321.820312 35.738281 321.8125 36.316406 321.773438 36.890625 L 321.738281 37.308594 C 321.738281 37.410156 321.664062 37.890625 321.699219 37.628906 C 321.738281 37.367188 321.671875 37.816406 321.660156 37.894531 C 321.628906 38.070312 321.597656 38.242188 321.566406 38.414062 C 321.265625 39.855469 320.828125 41.25 320.246094 42.601562 C 319.886719 43.460938 320.636719 44.59375 321.492188 44.789062 C 322.53125 45.027344 323.292969 44.46875 323.679688 43.546875 C 325.523438 39.148438 326.042969 34.269531 324.058594 29.832031 C 322.859375 27.164062 320.738281 24.949219 318.304688 23.371094 C 317.84375 23.058594 317.363281 22.789062 316.855469 22.554688 C 316.339844 22.277344 315.8125 22.246094 315.273438 22.464844 C 314.738281 22.679688 314.394531 23.0625 314.242188 23.621094 C 313.972656 24.660156 313.660156 25.691406 313.296875 26.703125 C 313.136719 27.152344 312.964844 27.597656 312.789062 28.039062 C 312.742188 28.160156 312.695312 28.28125 312.644531 28.402344 C 312.59375 28.523438 312.472656 28.804688 312.609375 28.484375 C 312.507812 28.722656 312.40625 28.957031 312.308594 29.191406 C 311.515625 30.957031 310.613281 32.664062 309.605469 34.316406 C 308.769531 35.699219 307.871094 37.039062 306.902344 38.335938 C 306.707031 38.601562 306.503906 38.867188 306.300781 39.128906 L 306.398438 39 C 306.347656 39.078125 306.28125 39.15625 306.222656 39.226562 L 305.941406 39.585938 C 305.621094 39.988281 305.296875 40.382812 304.960938 40.785156 C 304.628906 41.1875 304.3125 41.542969 303.96875 41.902344 C 303.324219 42.578125 303.25 43.761719 303.96875 44.421875 C 304.136719 44.585938 304.328125 44.710938 304.546875 44.800781 C 304.761719 44.886719 304.988281 44.933594 305.222656 44.933594 C 305.460938 44.933594 305.683594 44.886719 305.902344 44.800781 C 306.121094 44.710938 306.3125 44.585938 306.480469 44.421875 Z M 306.457031 44.394531 " fill-opacity="1" fill-rule="nonzero"/></g><g clip-path="url(#152bb54d0d)"><path fill="#ffffff" d="M 244.203125 41.875 C 243.929688 41.574219 243.667969 41.277344 243.410156 40.992188 C 243.097656 40.636719 242.796875 40.273438 242.507812 39.902344 C 242.339844 39.699219 242.175781 39.492188 242.011719 39.300781 C 241.929688 39.195312 241.59375 38.738281 241.9375 39.207031 C 241.828125 39.058594 241.710938 38.90625 241.601562 38.765625 C 239.492188 35.992188 237.691406 33.035156 236.191406 29.890625 C 236.082031 29.660156 235.976562 29.425781 235.871094 29.191406 L 235.710938 28.839844 C 235.679688 28.773438 235.464844 28.261719 235.617188 28.617188 C 235.402344 28.113281 235.199219 27.597656 235.015625 27.078125 C 234.59375 25.945312 234.234375 24.789062 233.933594 23.621094 C 233.785156 23.054688 233.4375 22.664062 232.894531 22.449219 C 232.351562 22.230469 231.824219 22.261719 231.308594 22.542969 C 229.785156 23.265625 228.429688 24.226562 227.242188 25.429688 C 225.914062 26.707031 224.867188 28.1875 224.101562 29.867188 C 223.339844 31.546875 222.910156 33.308594 222.816406 35.148438 C 222.671875 38.019531 223.382812 40.902344 224.488281 43.53125 C 224.847656 44.386719 225.691406 45.097656 226.675781 44.777344 C 227.496094 44.511719 228.304688 43.503906 227.917969 42.589844 C 227.402344 41.378906 226.996094 40.136719 226.699219 38.855469 C 226.636719 38.574219 226.578125 38.292969 226.527344 38.011719 C 226.507812 37.882812 226.488281 37.753906 226.46875 37.628906 C 226.46875 37.582031 226.429688 37.359375 226.46875 37.628906 C 226.507812 37.894531 226.46875 37.554688 226.46875 37.492188 C 226.410156 36.980469 226.378906 36.46875 226.375 35.953125 C 226.371094 35.449219 226.394531 34.949219 226.445312 34.449219 C 226.445312 34.378906 226.503906 34.007812 226.445312 34.316406 C 226.390625 34.628906 226.445312 34.265625 226.46875 34.195312 C 226.507812 33.960938 226.550781 33.726562 226.601562 33.496094 C 226.699219 33.066406 226.816406 32.644531 226.957031 32.230469 C 227.015625 32.050781 227.082031 31.875 227.148438 31.699219 C 227.175781 31.644531 227.199219 31.589844 227.21875 31.53125 C 227.21875 31.503906 227.050781 31.910156 227.128906 31.742188 C 227.171875 31.648438 227.214844 31.546875 227.257812 31.441406 C 227.578125 30.753906 227.960938 30.101562 228.398438 29.480469 C 228.457031 29.402344 228.511719 29.328125 228.566406 29.25 C 228.734375 29.019531 228.589844 29.234375 228.488281 29.351562 C 228.609375 29.214844 228.71875 29.066406 228.835938 28.925781 C 229.046875 28.675781 229.269531 28.433594 229.5 28.203125 C 229.925781 27.773438 230.375 27.375 230.847656 27 C 231.175781 26.730469 230.484375 27.265625 230.847656 27 L 231.171875 26.761719 C 231.359375 26.632812 231.542969 26.507812 231.734375 26.386719 C 232.171875 26.097656 232.628906 25.84375 233.105469 25.625 L 230.492188 24.558594 C 232.265625 31.46875 236.058594 37.835938 240.648438 43.238281 C 240.984375 43.632812 241.324219 44.027344 241.683594 44.40625 C 241.851562 44.570312 242.046875 44.695312 242.261719 44.785156 C 242.480469 44.871094 242.707031 44.917969 242.941406 44.917969 C 243.175781 44.917969 243.402344 44.871094 243.621094 44.785156 C 243.835938 44.695312 244.03125 44.570312 244.199219 44.40625 C 244.363281 44.238281 244.488281 44.042969 244.578125 43.828125 C 244.667969 43.609375 244.710938 43.382812 244.710938 43.148438 C 244.710938 42.910156 244.667969 42.683594 244.578125 42.46875 C 244.488281 42.25 244.363281 42.058594 244.199219 41.886719 Z M 244.203125 41.875 " fill-opacity="1" fill-rule="nonzero"/></g><path fill="#ffffff" d="M 277.378906 146.09375 C 278.28125 146.96875 279.265625 147.78125 280.246094 148.574219 C 282.742188 150.597656 285.359375 152.449219 288.097656 154.132812 C 295.460938 158.640625 303.957031 161.988281 312.695312 161.925781 C 317.296875 161.890625 322.035156 160.910156 326.105469 158.714844 C 329.277344 156.96875 331.839844 154.574219 333.796875 151.527344 C 337.285156 146.175781 338.417969 139.785156 339.964844 133.695312 C 340.304688 132.347656 340.671875 130.992188 341.132812 129.6875 C 341.234375 129.390625 341.34375 129.089844 341.457031 128.808594 C 341.511719 128.667969 341.570312 128.527344 341.628906 128.386719 C 341.746094 128.085938 341.4375 128.816406 341.566406 128.53125 L 341.683594 128.257812 C 341.921875 127.730469 342.183594 127.21875 342.476562 126.722656 C 342.621094 126.484375 342.777344 126.25 342.925781 126.023438 L 343.164062 125.695312 C 343.335938 125.457031 342.863281 126.066406 343.050781 125.839844 C 343.105469 125.773438 343.160156 125.703125 343.21875 125.636719 C 343.578125 125.226562 343.964844 124.84375 344.382812 124.492188 C 344.597656 124.300781 343.992188 124.769531 344.230469 124.609375 L 344.390625 124.496094 C 344.492188 124.421875 344.601562 124.347656 344.714844 124.277344 C 344.957031 124.125 345.207031 123.988281 345.46875 123.863281 L 345.648438 123.78125 C 345.914062 123.652344 345.195312 123.953125 345.472656 123.851562 L 345.859375 123.707031 C 346.15625 123.609375 346.457031 123.527344 346.761719 123.457031 C 346.90625 123.429688 347.0625 123.398438 347.199219 123.375 C 347.273438 123.375 347.351562 123.355469 347.421875 123.339844 C 346.863281 123.472656 347.09375 123.378906 347.253906 123.363281 C 347.578125 123.328125 347.898438 123.304688 348.21875 123.296875 C 349.152344 123.269531 350.042969 122.496094 350 121.519531 C 349.996094 121.28125 349.949219 121.058594 349.859375 120.839844 C 349.765625 120.625 349.636719 120.433594 349.472656 120.265625 C 349.304688 120.101562 349.113281 119.972656 348.898438 119.878906 C 348.679688 119.789062 348.453125 119.742188 348.21875 119.738281 C 345.480469 119.816406 342.855469 120.777344 340.972656 122.820312 C 339.152344 124.800781 338.117188 127.355469 337.335938 129.890625 C 336.476562 132.664062 335.894531 135.515625 335.1875 138.328125 C 334.800781 139.859375 334.386719 141.382812 333.894531 142.890625 C 333.660156 143.617188 333.402344 144.335938 333.125 145.050781 C 333.058594 145.226562 332.984375 145.402344 332.914062 145.582031 C 332.882812 145.671875 332.847656 145.761719 332.804688 145.847656 C 333.066406 145.457031 332.902344 145.613281 332.835938 145.773438 C 332.667969 146.152344 332.5 146.527344 332.316406 146.902344 C 331.644531 148.316406 330.839844 149.652344 329.914062 150.910156 C 329.820312 151.042969 329.753906 151.269531 329.960938 150.855469 C 329.90625 150.9375 329.847656 151.011719 329.78125 151.082031 C 329.660156 151.234375 329.53125 151.382812 329.410156 151.53125 C 329.132812 151.851562 328.847656 152.164062 328.554688 152.46875 C 327.972656 153.066406 327.308594 153.566406 326.699219 154.132812 C 327.121094 153.742188 326.609375 154.199219 326.488281 154.289062 C 326.363281 154.378906 326.1875 154.511719 326.019531 154.613281 C 325.65625 154.867188 325.28125 155.101562 324.902344 155.320312 C 324.523438 155.539062 324.136719 155.75 323.746094 155.945312 C 323.546875 156.046875 323.339844 156.140625 323.144531 156.246094 L 322.84375 156.386719 C 322.382812 156.59375 323.035156 156.316406 322.742188 156.433594 C 320.652344 157.253906 318.496094 157.824219 316.273438 158.148438 L 316.191406 158.148438 L 315.773438 158.195312 C 315.496094 158.226562 315.222656 158.25 314.941406 158.273438 C 314.339844 158.320312 313.738281 158.347656 313.140625 158.363281 C 312 158.382812 310.863281 158.347656 309.726562 158.25 C 309.230469 158.207031 308.738281 158.152344 308.246094 158.089844 C 307.753906 158.03125 308.640625 158.152344 308.183594 158.089844 L 307.78125 158.03125 C 307.480469 157.984375 307.164062 157.929688 306.855469 157.875 C 305.761719 157.675781 304.675781 157.429688 303.597656 157.140625 C 301.535156 156.589844 299.519531 155.886719 297.558594 155.039062 C 298.019531 155.238281 297.28125 154.914062 297.164062 154.863281 L 296.472656 154.5625 C 295.980469 154.339844 295.492188 154.109375 295.003906 153.867188 C 294.105469 153.421875 293.203125 152.964844 292.320312 152.460938 C 289.375 150.820312 286.566406 148.976562 283.894531 146.925781 L 283.695312 146.773438 L 283.800781 146.855469 L 283.429688 146.554688 L 282.683594 145.953125 C 282.285156 145.628906 281.882812 145.296875 281.484375 144.960938 C 281.015625 144.558594 280.550781 144.152344 280.097656 143.730469 L 279.921875 143.566406 C 279.25 142.917969 278.066406 142.847656 277.40625 143.566406 C 277.242188 143.734375 277.117188 143.925781 277.027344 144.144531 C 276.941406 144.363281 276.894531 144.589844 276.894531 144.824219 C 276.894531 145.058594 276.941406 145.285156 277.027344 145.5 C 277.117188 145.71875 277.242188 145.910156 277.40625 146.082031 Z M 277.378906 146.09375 " fill-opacity="1" fill-rule="nonzero"/><path fill="#ffffff" d="M 343.140625 117.542969 L 348.433594 121.65625 L 349.839844 122.75 L 349.839844 120.230469 L 345.691406 125.5 L 344.589844 126.898438 C 344.011719 127.628906 343.824219 128.699219 344.589844 129.414062 C 345.230469 130.015625 346.488281 130.195312 347.105469 129.414062 L 351.253906 124.148438 L 352.355469 122.75 C 352.890625 122.066406 353.183594 120.875 352.355469 120.230469 L 347.058594 116.121094 L 345.652344 115.027344 C 344.921875 114.457031 343.851562 114.257812 343.140625 115.027344 C 342.539062 115.664062 342.355469 116.933594 343.140625 117.542969 Z M 343.140625 117.542969 " fill-opacity="1" fill-rule="nonzero"/></svg>