<svg xmlns="http://www.w3.org/2000/svg" xmlns:xlink="http://www.w3.org/1999/xlink" width="42" zoomAndPan="magnify" viewBox="0 0 31.5 31.499999" height="42" preserveAspectRatio="xMidYMid meet" version="1.0"><defs><clipPath id="800386ccde"><path d="M 1.21875 1.21875 L 30 1.21875 L 30 30 L 1.21875 30 Z M 1.21875 1.21875 " clip-rule="nonzero"/></clipPath><clipPath id="5a023938a6"><path d="M 19.257812 0 L 31.007812 0 L 31.007812 12.550781 L 19.257812 12.550781 Z M 19.257812 0 " clip-rule="nonzero"/></clipPath><clipPath id="bc1d2a9d50"><path d="M 0 18.605469 L 11.8125 18.605469 L 11.8125 31.007812 L 0 31.007812 Z M 0 18.605469 " clip-rule="nonzero"/></clipPath></defs><g clip-path="url(#800386ccde)"><path fill="#ffffff" d="M 15.5 1.21875 C 7.617188 1.21875 1.21875 7.617188 1.21875 15.5 C 1.21875 23.378906 7.617188 29.78125 15.5 29.78125 C 23.378906 29.78125 29.78125 23.378906 29.78125 15.5 C 29.78125 7.617188 23.378906 1.21875 15.5 1.21875 Z M 15.5 2.460938 C 22.707031 2.460938 28.539062 8.289062 28.539062 15.5 C 28.539062 22.707031 22.707031 28.539062 15.5 28.539062 C 8.289062 28.539062 2.460938 22.707031 2.460938 15.5 C 2.460938 8.289062 8.289062 2.460938 15.5 2.460938 Z M 15.441406 7.40625 C 15.414062 7.414062 15.386719 7.421875 15.363281 7.425781 C 15.074219 7.492188 14.871094 7.753906 14.878906 8.046875 L 14.878906 21.4375 L 10.976562 17.535156 C 10.828125 17.382812 10.605469 17.316406 10.394531 17.363281 C 10.164062 17.402344 9.976562 17.574219 9.910156 17.796875 C 9.84375 18.027344 9.914062 18.269531 10.085938 18.429688 L 14.976562 23.300781 C 14.988281 23.320312 15 23.339844 15.015625 23.359375 L 15.054688 23.398438 C 15.066406 23.410156 15.078125 23.421875 15.09375 23.433594 C 15.097656 23.433594 15.105469 23.433594 15.109375 23.433594 C 15.152344 23.472656 15.199219 23.503906 15.246094 23.53125 C 15.253906 23.53125 15.257812 23.53125 15.265625 23.53125 C 15.277344 23.539062 15.292969 23.546875 15.304688 23.550781 C 15.3125 23.550781 15.316406 23.550781 15.324219 23.550781 C 15.34375 23.558594 15.363281 23.566406 15.382812 23.570312 C 15.449219 23.582031 15.511719 23.582031 15.578125 23.570312 C 15.589844 23.570312 15.605469 23.570312 15.617188 23.570312 C 15.667969 23.558594 15.722656 23.539062 15.769531 23.511719 C 15.851562 23.472656 15.925781 23.410156 15.984375 23.339844 L 20.914062 18.429688 C 21.160156 18.183594 21.160156 17.785156 20.914062 17.535156 C 20.664062 17.289062 20.269531 17.289062 20.019531 17.535156 L 16.121094 21.4375 L 16.121094 8.046875 C 16.128906 7.867188 16.054688 7.695312 15.925781 7.574219 C 15.796875 7.453125 15.617188 7.390625 15.441406 7.40625 Z M 15.441406 7.40625 " fill-opacity="1" fill-rule="nonzero"/></g><g clip-path="url(#5a023938a6)"><path fill="#fbcf3b" d="M 25.296875 6.09375 C 25.527344 5.855469 25.824219 5.695312 26.121094 5.558594 C 26.46875 5.394531 26.832031 5.257812 27.167969 5.058594 C 27.257812 5.007812 27.210938 4.878906 27.117188 4.871094 C 26.8125 4.851562 26.511719 4.792969 26.226562 4.671875 C 25.988281 4.574219 25.765625 4.429688 25.566406 4.261719 C 25.359375 4.082031 25.160156 3.878906 25 3.65625 C 24.816406 3.402344 24.691406 3.117188 24.617188 2.8125 C 24.542969 2.523438 24.507812 2.222656 24.480469 1.921875 C 24.480469 1.863281 24.472656 1.808594 24.464844 1.75 C 24.464844 1.746094 24.464844 1.742188 24.464844 1.742188 C 24.464844 1.738281 24.464844 1.738281 24.464844 1.734375 C 24.464844 1.726562 24.464844 1.722656 24.460938 1.714844 C 24.453125 1.660156 24.386719 1.632812 24.339844 1.644531 C 24.335938 1.644531 24.332031 1.648438 24.324219 1.648438 C 24.289062 1.660156 24.261719 1.691406 24.265625 1.742188 C 24.273438 1.816406 24.28125 1.894531 24.289062 1.972656 C 24.289062 2.171875 24.253906 2.371094 24.199219 2.5625 C 24.121094 2.84375 23.996094 3.109375 23.84375 3.355469 C 23.695312 3.589844 23.515625 3.804688 23.296875 3.976562 C 23.039062 4.175781 22.75 4.332031 22.449219 4.449219 C 22.097656 4.585938 21.730469 4.679688 21.359375 4.75 C 21.3125 4.757812 21.28125 4.816406 21.289062 4.859375 C 21.296875 4.914062 21.335938 4.941406 21.386719 4.945312 C 21.710938 4.988281 22.035156 5.070312 22.328125 5.222656 C 22.601562 5.367188 22.835938 5.566406 23.042969 5.796875 C 23.550781 6.359375 23.949219 7.046875 24.125 7.789062 C 24.179688 8.011719 24.210938 8.242188 24.222656 8.476562 C 24.199219 8.71875 24.191406 8.960938 24.191406 9.203125 C 24.1875 9.3125 24.367188 9.34375 24.382812 9.230469 C 24.386719 9.222656 24.386719 9.210938 24.386719 9.203125 C 24.386719 9.203125 24.386719 9.199219 24.386719 9.199219 C 24.417969 8.972656 24.425781 8.742188 24.417969 8.519531 C 24.464844 7.980469 24.574219 7.449219 24.78125 6.949219 C 24.910156 6.648438 25.066406 6.328125 25.296875 6.09375 Z M 24.324219 7.785156 C 24.242188 7.421875 24.113281 7.070312 23.933594 6.734375 C 23.75 6.382812 23.523438 6.054688 23.265625 5.75 C 23.050781 5.496094 22.804688 5.265625 22.515625 5.097656 C 22.3125 4.980469 22.097656 4.898438 21.878906 4.839844 C 22.402344 4.707031 22.914062 4.507812 23.347656 4.183594 C 23.84375 3.820312 24.1875 3.273438 24.371094 2.6875 C 24.371094 2.675781 24.375 2.664062 24.378906 2.652344 C 24.449219 3.011719 24.5625 3.355469 24.765625 3.667969 C 24.929688 3.917969 25.144531 4.148438 25.367188 4.347656 C 25.574219 4.535156 25.804688 4.699219 26.058594 4.816406 C 26.292969 4.921875 26.539062 4.992188 26.789062 5.035156 C 26.257812 5.292969 25.675781 5.472656 25.230469 5.878906 C 24.972656 6.117188 24.796875 6.433594 24.652344 6.753906 C 24.503906 7.082031 24.394531 7.429688 24.324219 7.785156 Z M 29.324219 2.277344 C 29.320312 2.277344 29.320312 2.277344 29.316406 2.273438 C 29.324219 2.277344 29.324219 2.277344 29.324219 2.277344 Z M 29.347656 2.292969 C 29.34375 2.289062 29.339844 2.289062 29.339844 2.289062 C 29.339844 2.289062 29.34375 2.289062 29.347656 2.292969 Z M 29.132812 2.640625 C 29.234375 2.691406 29.363281 2.6875 29.460938 2.621094 C 29.515625 2.585938 29.554688 2.539062 29.578125 2.476562 C 29.601562 2.421875 29.601562 2.347656 29.578125 2.289062 C 29.523438 2.140625 29.375 2.039062 29.214844 2.074219 C 29.214844 2.074219 29.214844 2.078125 29.210938 2.078125 C 29.210938 2.078125 29.207031 2.078125 29.207031 2.078125 C 29.097656 2.109375 29.015625 2.210938 28.996094 2.324219 C 28.988281 2.386719 28.992188 2.445312 29.015625 2.503906 C 29.039062 2.5625 29.078125 2.609375 29.132812 2.640625 Z M 29.222656 2.457031 C 29.21875 2.457031 29.21875 2.457031 29.21875 2.457031 C 29.207031 2.449219 29.214844 2.453125 29.222656 2.457031 Z M 29.222656 2.460938 Z M 29.382812 2.429688 C 29.378906 2.429688 29.378906 2.429688 29.378906 2.429688 C 29.382812 2.425781 29.390625 2.421875 29.382812 2.429688 Z M 29.375 2.4375 C 29.375 2.4375 29.375 2.433594 29.378906 2.433594 C 29.378906 2.433594 29.375 2.4375 29.375 2.4375 Z M 29.347656 2.292969 C 29.347656 2.292969 29.351562 2.292969 29.351562 2.296875 C 29.351562 2.292969 29.347656 2.292969 29.347656 2.292969 C 29.351562 2.296875 29.355469 2.300781 29.359375 2.304688 C 29.363281 2.308594 29.367188 2.3125 29.371094 2.316406 C 29.375 2.324219 29.378906 2.332031 29.386719 2.339844 C 29.386719 2.34375 29.386719 2.34375 29.386719 2.347656 C 29.386719 2.34375 29.386719 2.34375 29.386719 2.335938 C 29.386719 2.339844 29.386719 2.347656 29.390625 2.351562 C 29.390625 2.355469 29.390625 2.355469 29.390625 2.351562 C 29.394531 2.359375 29.394531 2.367188 29.394531 2.375 C 29.394531 2.382812 29.394531 2.386719 29.394531 2.394531 C 29.394531 2.398438 29.390625 2.40625 29.390625 2.414062 C 29.386719 2.417969 29.386719 2.421875 29.382812 2.425781 C 29.382812 2.425781 29.382812 2.429688 29.378906 2.433594 C 29.375 2.4375 29.367188 2.445312 29.363281 2.449219 C 29.359375 2.453125 29.355469 2.453125 29.351562 2.457031 C 29.347656 2.457031 29.34375 2.460938 29.339844 2.460938 C 29.339844 2.460938 29.320312 2.46875 29.316406 2.472656 C 29.308594 2.472656 29.304688 2.472656 29.296875 2.472656 C 29.285156 2.476562 29.273438 2.476562 29.261719 2.472656 C 29.257812 2.472656 29.253906 2.472656 29.25 2.472656 C 29.246094 2.46875 29.242188 2.46875 29.238281 2.46875 C 29.230469 2.464844 29.226562 2.460938 29.222656 2.460938 C 29.21875 2.457031 29.214844 2.453125 29.210938 2.453125 C 29.210938 2.449219 29.207031 2.449219 29.207031 2.445312 C 29.203125 2.4375 29.199219 2.433594 29.195312 2.425781 C 29.195312 2.421875 29.195312 2.421875 29.195312 2.417969 C 29.191406 2.414062 29.191406 2.40625 29.191406 2.402344 C 29.191406 2.390625 29.191406 2.378906 29.191406 2.367188 C 29.191406 2.355469 29.195312 2.339844 29.199219 2.328125 C 29.203125 2.324219 29.203125 2.324219 29.203125 2.320312 C 29.207031 2.3125 29.214844 2.304688 29.21875 2.300781 C 29.21875 2.296875 29.222656 2.292969 29.226562 2.292969 C 29.226562 2.289062 29.230469 2.285156 29.234375 2.285156 C 29.238281 2.28125 29.246094 2.277344 29.25 2.273438 C 29.25 2.273438 29.246094 2.273438 29.246094 2.273438 C 29.246094 2.273438 29.25 2.273438 29.25 2.273438 C 29.257812 2.269531 29.261719 2.269531 29.261719 2.269531 C 29.265625 2.269531 29.265625 2.269531 29.265625 2.269531 C 29.273438 2.265625 29.285156 2.269531 29.292969 2.269531 C 29.300781 2.269531 29.304688 2.269531 29.3125 2.273438 C 29.3125 2.273438 29.3125 2.273438 29.316406 2.273438 C 29.3125 2.273438 29.3125 2.273438 29.308594 2.269531 C 29.3125 2.273438 29.3125 2.273438 29.316406 2.273438 C 29.320312 2.277344 29.320312 2.277344 29.324219 2.277344 C 29.328125 2.28125 29.332031 2.285156 29.339844 2.289062 C 29.332031 2.285156 29.339844 2.289062 29.347656 2.292969 Z M 29.257812 2.269531 C 29.257812 2.269531 29.253906 2.273438 29.25 2.273438 C 29.257812 2.269531 29.261719 2.269531 29.261719 2.269531 C 29.261719 2.269531 29.261719 2.269531 29.257812 2.269531 Z M 29.390625 2.351562 C 29.390625 2.351562 29.390625 2.351562 29.386719 2.347656 C 29.390625 2.351562 29.390625 2.351562 29.390625 2.355469 C 29.390625 2.351562 29.390625 2.351562 29.390625 2.351562 Z M 29.65625 4.96875 C 29.4375 4.859375 29.257812 4.6875 29.136719 4.472656 C 29.085938 4.378906 28.957031 4.433594 28.953125 4.519531 C 28.953125 4.523438 28.949219 4.527344 28.949219 4.53125 C 28.898438 4.765625 28.742188 4.957031 28.523438 5.054688 C 28.449219 5.089844 28.46875 5.222656 28.546875 5.238281 C 28.792969 5.285156 29.003906 5.433594 29.125 5.65625 C 29.160156 5.71875 29.265625 5.722656 29.296875 5.65625 C 29.394531 5.460938 29.523438 5.28125 29.679688 5.125 C 29.722656 5.082031 29.714844 4.996094 29.65625 4.96875 Z M 28.980469 9.125 C 28.582031 9.035156 28.230469 8.800781 27.964844 8.488281 C 27.835938 8.335938 27.71875 8.160156 27.644531 7.972656 C 27.5625 7.765625 27.515625 7.546875 27.484375 7.328125 C 27.449219 7.082031 27.433594 6.832031 27.417969 6.585938 C 27.40625 6.457031 27.207031 6.457031 27.21875 6.585938 C 27.230469 6.730469 27.238281 6.878906 27.25 7.023438 C 27.226562 7.046875 27.210938 7.078125 27.222656 7.121094 C 27.257812 7.269531 27.226562 7.4375 27.183594 7.585938 C 27.128906 7.777344 27.046875 7.960938 26.953125 8.132812 C 26.863281 8.289062 26.757812 8.445312 26.632812 8.574219 C 26.480469 8.730469 26.285156 8.839844 26.089844 8.929688 C 25.835938 9.046875 25.5625 9.125 25.292969 9.199219 C 25.1875 9.226562 25.207031 9.40625 25.320312 9.394531 C 25.757812 9.351562 26.261719 9.324219 26.550781 9.722656 C 26.671875 9.890625 26.742188 10.09375 26.792969 10.292969 C 26.855469 10.542969 26.886719 10.796875 26.90625 11.050781 C 26.929688 11.363281 26.921875 11.675781 26.890625 11.988281 C 26.886719 12.042969 26.941406 12.089844 26.992188 12.089844 C 27.050781 12.089844 27.085938 12.042969 27.089844 11.988281 C 27.171875 11.066406 27.480469 10.074219 28.308594 9.566406 C 28.515625 9.4375 28.742188 9.351562 28.980469 9.316406 C 29.082031 9.304688 29.074219 9.144531 28.980469 9.125 Z M 27.742188 9.773438 C 27.4375 10.09375 27.230469 10.488281 27.097656 10.90625 C 27.074219 10.691406 27.039062 10.476562 26.992188 10.265625 C 26.886719 9.816406 26.65625 9.375 26.1875 9.230469 C 26.125 9.210938 26.0625 9.195312 26 9.1875 C 26.273438 9.082031 26.53125 8.949219 26.738281 8.75 C 27.023438 8.472656 27.234375 8.085938 27.355469 7.710938 C 27.378906 7.804688 27.40625 7.898438 27.4375 7.988281 C 27.59375 8.402344 27.894531 8.765625 28.253906 9.015625 C 28.359375 9.09375 28.476562 9.15625 28.59375 9.207031 C 28.269531 9.320312 27.976562 9.523438 27.742188 9.773438 Z M 23.339844 11.800781 C 23.320312 11.78125 23.296875 11.769531 23.265625 11.769531 C 23.101562 11.773438 22.953125 11.882812 22.902344 12.039062 C 22.855469 12.199219 22.921875 12.371094 23.050781 12.46875 C 23.167969 12.554688 23.332031 12.546875 23.453125 12.472656 C 23.582031 12.390625 23.652344 12.246094 23.621094 12.097656 C 23.59375 11.953125 23.476562 11.835938 23.339844 11.800781 Z M 23.429688 12.152344 C 23.429688 12.148438 23.429688 12.148438 23.429688 12.144531 C 23.429688 12.144531 23.429688 12.148438 23.429688 12.152344 Z M 23.1875 12.316406 C 23.1875 12.316406 23.191406 12.320312 23.195312 12.320312 C 23.195312 12.324219 23.191406 12.320312 23.1875 12.316406 Z M 22.039062 2.78125 C 22.042969 2.78125 22.046875 2.78125 22.050781 2.78125 C 22.050781 2.78125 22.042969 2.78125 22.039062 2.78125 Z M 22.117188 2.96875 C 22.25 2.933594 22.367188 2.816406 22.363281 2.671875 C 22.363281 2.59375 22.328125 2.511719 22.269531 2.457031 C 22.238281 2.425781 22.207031 2.40625 22.164062 2.390625 C 22.144531 2.382812 22.125 2.378906 22.105469 2.378906 C 21.992188 2.308594 21.839844 2.347656 21.753906 2.4375 C 21.652344 2.542969 21.648438 2.710938 21.734375 2.828125 C 21.824219 2.949219 21.96875 3.007812 22.117188 2.96875 Z M 21.871094 2.652344 C 21.871094 2.65625 21.871094 2.660156 21.871094 2.652344 Z M 21.871094 2.644531 Z M 21.964844 2.773438 C 21.96875 2.773438 21.972656 2.773438 21.972656 2.773438 C 21.96875 2.773438 21.96875 2.773438 21.964844 2.773438 Z M 22.125 2.746094 C 22.125 2.75 22.125 2.75 22.125 2.75 C 22.128906 2.746094 22.136719 2.742188 22.125 2.746094 Z M 22.121094 2.753906 C 22.121094 2.753906 22.121094 2.75 22.121094 2.75 C 22.121094 2.75 22.121094 2.753906 22.121094 2.753906 Z M 22.164062 2.6875 C 22.164062 2.691406 22.164062 2.691406 22.164062 2.6875 Z M 22 2.546875 C 21.996094 2.546875 21.992188 2.546875 21.992188 2.542969 C 21.996094 2.546875 21.996094 2.546875 22 2.546875 Z M 21.871094 2.625 C 21.871094 2.621094 21.871094 2.617188 21.871094 2.617188 C 21.871094 2.617188 21.871094 2.617188 21.871094 2.621094 C 21.875 2.613281 21.878906 2.605469 21.878906 2.601562 C 21.878906 2.597656 21.878906 2.597656 21.878906 2.597656 C 21.882812 2.59375 21.882812 2.589844 21.886719 2.585938 C 21.890625 2.585938 21.894531 2.574219 21.898438 2.574219 C 21.902344 2.570312 21.90625 2.566406 21.90625 2.566406 C 21.914062 2.558594 21.925781 2.554688 21.933594 2.550781 C 21.941406 2.546875 21.945312 2.546875 21.949219 2.542969 C 21.953125 2.542969 21.957031 2.542969 21.960938 2.542969 C 21.96875 2.542969 21.972656 2.542969 21.980469 2.542969 C 21.976562 2.542969 21.980469 2.539062 21.984375 2.542969 C 21.988281 2.542969 21.988281 2.542969 21.988281 2.542969 C 22.011719 2.570312 22.046875 2.578125 22.089844 2.574219 C 22.058594 2.578125 22.085938 2.578125 22.09375 2.578125 C 22.09375 2.578125 22.097656 2.578125 22.097656 2.578125 C 22.097656 2.578125 22.101562 2.578125 22.105469 2.578125 C 22.109375 2.582031 22.113281 2.585938 22.117188 2.585938 C 22.117188 2.585938 22.121094 2.589844 22.125 2.589844 C 22.125 2.59375 22.128906 2.59375 22.128906 2.597656 C 22.132812 2.601562 22.136719 2.601562 22.140625 2.605469 C 22.140625 2.609375 22.15625 2.621094 22.144531 2.609375 C 22.132812 2.601562 22.144531 2.609375 22.144531 2.617188 C 22.148438 2.621094 22.148438 2.621094 22.152344 2.625 C 22.152344 2.628906 22.152344 2.628906 22.15625 2.632812 C 22.15625 2.632812 22.15625 2.632812 22.15625 2.636719 C 22.15625 2.636719 22.160156 2.640625 22.160156 2.640625 C 22.160156 2.640625 22.160156 2.644531 22.160156 2.644531 C 22.160156 2.648438 22.160156 2.652344 22.164062 2.65625 C 22.164062 2.664062 22.164062 2.675781 22.164062 2.679688 C 22.164062 2.6875 22.164062 2.691406 22.164062 2.695312 C 22.160156 2.695312 22.160156 2.695312 22.160156 2.699219 C 22.164062 2.695312 22.164062 2.695312 22.160156 2.703125 C 22.160156 2.707031 22.15625 2.707031 22.160156 2.707031 C 22.15625 2.707031 22.15625 2.707031 22.15625 2.707031 C 22.15625 2.710938 22.144531 2.722656 22.144531 2.730469 C 22.140625 2.730469 22.140625 2.730469 22.140625 2.730469 C 22.140625 2.734375 22.136719 2.738281 22.132812 2.738281 C 22.132812 2.742188 22.125 2.746094 22.121094 2.75 C 22.113281 2.753906 22.105469 2.761719 22.097656 2.765625 C 22.09375 2.765625 22.09375 2.765625 22.089844 2.769531 C 22.085938 2.769531 22.082031 2.769531 22.082031 2.773438 C 22.074219 2.773438 22.0625 2.777344 22.054688 2.78125 C 22.054688 2.78125 22.050781 2.78125 22.050781 2.78125 C 22.050781 2.78125 22.050781 2.78125 22.046875 2.78125 C 22.042969 2.78125 22.042969 2.78125 22.039062 2.78125 C 22.03125 2.78125 22.023438 2.78125 22.015625 2.78125 C 22.011719 2.78125 22.011719 2.78125 22.007812 2.78125 C 22.007812 2.78125 22.007812 2.78125 22 2.78125 C 21.996094 2.78125 21.996094 2.78125 21.996094 2.78125 C 21.988281 2.777344 21.976562 2.773438 21.964844 2.769531 C 21.960938 2.769531 21.953125 2.765625 21.953125 2.765625 C 21.949219 2.761719 21.945312 2.757812 21.941406 2.757812 C 21.941406 2.757812 21.9375 2.753906 21.9375 2.753906 C 21.925781 2.746094 21.929688 2.75 21.941406 2.757812 C 21.929688 2.753906 21.921875 2.742188 21.914062 2.734375 C 21.910156 2.730469 21.90625 2.722656 21.902344 2.71875 C 21.898438 2.71875 21.898438 2.714844 21.898438 2.714844 C 21.894531 2.707031 21.886719 2.699219 21.886719 2.695312 C 21.882812 2.691406 21.882812 2.6875 21.878906 2.683594 C 21.878906 2.679688 21.875 2.65625 21.871094 2.648438 C 21.871094 2.644531 21.871094 2.640625 21.871094 2.632812 C 21.871094 2.632812 21.871094 2.628906 21.871094 2.625 C 21.871094 2.628906 21.871094 2.632812 21.871094 2.625 Z M 21.996094 2.78125 C 21.996094 2.78125 21.996094 2.78125 22 2.78125 C 22 2.78125 22.003906 2.78125 22.007812 2.78125 C 22.003906 2.78125 22 2.78125 21.996094 2.78125 Z M 22.15625 2.707031 C 22.15625 2.707031 22.15625 2.707031 22.160156 2.707031 C 22.160156 2.707031 22.160156 2.703125 22.160156 2.703125 C 22.160156 2.703125 22.160156 2.699219 22.160156 2.699219 C 22.160156 2.699219 22.15625 2.703125 22.15625 2.707031 Z M 21.988281 2.542969 C 21.988281 2.542969 21.984375 2.542969 21.984375 2.542969 C 21.984375 2.542969 21.980469 2.542969 21.980469 2.542969 C 21.980469 2.542969 21.984375 2.542969 21.988281 2.542969 Z M 22.160156 2.644531 C 22.160156 2.640625 22.160156 2.640625 22.160156 2.640625 C 22.15625 2.640625 22.15625 2.636719 22.15625 2.632812 C 22.15625 2.636719 22.15625 2.640625 22.160156 2.644531 Z M 21.871094 2.621094 C 21.871094 2.621094 21.871094 2.621094 21.871094 2.625 C 21.871094 2.625 21.871094 2.621094 21.871094 2.621094 Z M 29.453125 11.683594 C 29.324219 11.683594 29.324219 11.882812 29.453125 11.882812 C 29.582031 11.882812 29.582031 11.683594 29.453125 11.683594 Z M 20.746094 11.203125 C 20.734375 11.191406 20.722656 11.175781 20.707031 11.164062 C 20.699219 11.15625 20.6875 11.148438 20.675781 11.144531 C 20.664062 11.136719 20.652344 11.132812 20.636719 11.136719 C 20.625 11.132812 20.613281 11.136719 20.601562 11.144531 C 20.589844 11.148438 20.578125 11.15625 20.570312 11.164062 C 20.5625 11.171875 20.558594 11.179688 20.554688 11.183594 C 20.542969 11.199219 20.539062 11.21875 20.539062 11.234375 C 20.539062 11.242188 20.542969 11.253906 20.542969 11.261719 C 20.546875 11.277344 20.554688 11.292969 20.570312 11.304688 C 20.582031 11.320312 20.59375 11.332031 20.605469 11.34375 C 20.617188 11.355469 20.625 11.359375 20.640625 11.367188 C 20.652344 11.371094 20.664062 11.375 20.675781 11.375 C 20.691406 11.375 20.703125 11.371094 20.714844 11.367188 C 20.726562 11.359375 20.738281 11.355469 20.746094 11.34375 C 20.753906 11.339844 20.757812 11.332031 20.761719 11.324219 C 20.773438 11.308594 20.777344 11.292969 20.777344 11.273438 C 20.777344 11.265625 20.773438 11.257812 20.773438 11.246094 C 20.769531 11.230469 20.761719 11.214844 20.746094 11.203125 Z M 19.394531 6.445312 C 19.269531 6.445312 19.269531 6.644531 19.394531 6.644531 C 19.523438 6.644531 19.523438 6.445312 19.394531 6.445312 Z M 26.96875 3.128906 C 27.097656 3.128906 27.097656 2.929688 26.96875 2.929688 C 26.839844 2.929688 26.839844 3.128906 26.96875 3.128906 Z M 25.53125 0.199219 C 25.660156 0.199219 25.660156 0 25.53125 0 C 25.402344 0 25.402344 0.199219 25.53125 0.199219 Z M 30.929688 7.8125 C 30.800781 7.8125 30.800781 8.015625 30.929688 8.015625 C 31.054688 8.015625 31.058594 7.8125 30.929688 7.8125 Z M 19.746094 2.148438 C 19.617188 2.148438 19.617188 2.347656 19.746094 2.347656 C 19.875 2.347656 19.875 2.148438 19.746094 2.148438 Z M 21.757812 7.726562 C 21.75 7.722656 21.742188 7.714844 21.738281 7.710938 C 21.722656 7.703125 21.703125 7.695312 21.6875 7.695312 C 21.675781 7.695312 21.660156 7.695312 21.648438 7.695312 C 21.632812 7.695312 21.621094 7.699219 21.609375 7.707031 C 21.597656 7.710938 21.585938 7.714844 21.578125 7.726562 C 21.566406 7.734375 21.5625 7.746094 21.558594 7.757812 C 21.550781 7.769531 21.546875 7.78125 21.550781 7.796875 C 21.550781 7.804688 21.550781 7.816406 21.550781 7.824219 C 21.558594 7.839844 21.566406 7.855469 21.578125 7.867188 C 21.585938 7.871094 21.589844 7.878906 21.597656 7.882812 C 21.613281 7.890625 21.628906 7.898438 21.648438 7.898438 C 21.660156 7.898438 21.675781 7.898438 21.6875 7.898438 C 21.699219 7.898438 21.714844 7.894531 21.726562 7.886719 C 21.738281 7.882812 21.75 7.878906 21.757812 7.867188 C 21.765625 7.859375 21.773438 7.847656 21.777344 7.835938 C 21.785156 7.824219 21.785156 7.808594 21.785156 7.796875 C 21.785156 7.789062 21.785156 7.777344 21.78125 7.769531 C 21.777344 7.753906 21.769531 7.738281 21.757812 7.726562 Z M 21.757812 7.726562 " fill-opacity="1" fill-rule="nonzero"/></g><g clip-path="url(#bc1d2a9d50)"><path fill="#fbcf3b" d="M 6.039062 24.695312 C 6.269531 24.460938 6.5625 24.300781 6.859375 24.160156 C 7.210938 24 7.574219 23.859375 7.910156 23.664062 C 7.996094 23.609375 7.953125 23.484375 7.859375 23.476562 C 7.554688 23.457031 7.253906 23.394531 6.96875 23.277344 C 6.730469 23.175781 6.507812 23.035156 6.308594 22.863281 C 6.101562 22.6875 5.902344 22.484375 5.738281 22.261719 C 5.554688 22.007812 5.433594 21.722656 5.355469 21.417969 C 5.285156 21.125 5.25 20.828125 5.222656 20.527344 C 5.21875 20.46875 5.214844 20.410156 5.207031 20.355469 C 5.207031 20.351562 5.207031 20.347656 5.207031 20.34375 C 5.207031 20.34375 5.207031 20.34375 5.207031 20.339844 C 5.203125 20.332031 5.203125 20.324219 5.203125 20.320312 C 5.195312 20.265625 5.128906 20.234375 5.082031 20.25 C 5.074219 20.25 5.070312 20.253906 5.066406 20.253906 C 5.03125 20.265625 5.003906 20.296875 5.007812 20.34375 C 5.015625 20.421875 5.019531 20.5 5.027344 20.578125 C 5.03125 20.777344 4.992188 20.976562 4.941406 21.167969 C 4.859375 21.445312 4.738281 21.714844 4.585938 21.957031 C 4.4375 22.195312 4.257812 22.410156 4.035156 22.582031 C 3.78125 22.78125 3.492188 22.933594 3.191406 23.054688 C 2.839844 23.191406 2.472656 23.285156 2.101562 23.355469 C 2.054688 23.363281 2.023438 23.417969 2.03125 23.464844 C 2.039062 23.515625 2.078125 23.542969 2.128906 23.550781 C 2.453125 23.589844 2.777344 23.671875 3.066406 23.828125 C 3.34375 23.972656 3.578125 24.171875 3.785156 24.402344 C 4.289062 24.964844 4.6875 25.652344 4.867188 26.394531 C 4.917969 26.617188 4.953125 26.847656 4.964844 27.082031 C 4.941406 27.320312 4.929688 27.566406 4.929688 27.808594 C 4.929688 27.917969 5.109375 27.949219 5.125 27.835938 C 5.125 27.824219 5.128906 27.816406 5.128906 27.808594 C 5.128906 27.804688 5.128906 27.804688 5.128906 27.804688 C 5.15625 27.574219 5.167969 27.347656 5.160156 27.125 C 5.207031 26.585938 5.316406 26.054688 5.523438 25.554688 C 5.648438 25.25 5.808594 24.933594 6.039062 24.695312 Z M 5.0625 26.390625 C 4.984375 26.027344 4.851562 25.671875 4.675781 25.335938 C 4.492188 24.988281 4.261719 24.65625 4.007812 24.355469 C 3.792969 24.101562 3.542969 23.871094 3.253906 23.703125 C 3.054688 23.585938 2.839844 23.503906 2.617188 23.445312 C 3.144531 23.3125 3.652344 23.113281 4.089844 22.789062 C 4.585938 22.421875 4.929688 21.875 5.109375 21.292969 C 5.113281 21.28125 5.117188 21.269531 5.121094 21.257812 C 5.191406 21.613281 5.304688 21.960938 5.507812 22.273438 C 5.671875 22.523438 5.886719 22.75 6.109375 22.953125 C 6.316406 23.140625 6.546875 23.300781 6.800781 23.417969 C 7.035156 23.527344 7.28125 23.597656 7.53125 23.636719 C 7 23.898438 6.414062 24.078125 5.972656 24.484375 C 5.714844 24.722656 5.539062 25.039062 5.394531 25.359375 C 5.246094 25.6875 5.136719 26.035156 5.0625 26.390625 Z M 10.0625 20.882812 C 10.0625 20.882812 10.0625 20.878906 10.058594 20.878906 C 10.058594 20.878906 10.058594 20.878906 10.054688 20.878906 C 10.066406 20.882812 10.066406 20.882812 10.0625 20.882812 Z M 10.089844 20.898438 C 10.085938 20.894531 10.082031 20.894531 10.078125 20.890625 C 10.082031 20.894531 10.085938 20.894531 10.089844 20.898438 Z M 9.875 21.242188 C 9.976562 21.296875 10.105469 21.289062 10.203125 21.226562 C 10.257812 21.191406 10.296875 21.144531 10.320312 21.082031 C 10.34375 21.023438 10.339844 20.953125 10.320312 20.894531 C 10.265625 20.746094 10.117188 20.644531 9.957031 20.679688 C 9.957031 20.679688 9.953125 20.679688 9.953125 20.679688 C 9.953125 20.683594 9.949219 20.683594 9.949219 20.683594 C 9.835938 20.714844 9.753906 20.816406 9.738281 20.929688 C 9.730469 20.992188 9.730469 21.050781 9.757812 21.109375 C 9.78125 21.164062 9.820312 21.214844 9.875 21.242188 Z M 9.960938 21.0625 C 9.960938 21.0625 9.960938 21.0625 9.957031 21.0625 C 9.945312 21.054688 9.957031 21.058594 9.960938 21.0625 Z M 9.964844 21.066406 Z M 10.121094 21.035156 C 10.125 21.03125 10.128906 21.027344 10.121094 21.035156 Z M 10.117188 21.042969 C 10.117188 21.042969 10.117188 21.039062 10.121094 21.039062 C 10.117188 21.039062 10.117188 21.042969 10.117188 21.042969 Z M 10.085938 20.894531 C 10.085938 20.898438 10.089844 20.898438 10.089844 20.898438 C 10.089844 20.898438 10.089844 20.898438 10.09375 20.898438 C 10.089844 20.898438 10.089844 20.898438 10.089844 20.898438 C 10.09375 20.902344 10.097656 20.90625 10.101562 20.910156 C 10.105469 20.914062 10.109375 20.917969 10.109375 20.921875 C 10.117188 20.929688 10.121094 20.9375 10.125 20.945312 C 10.128906 20.945312 10.128906 20.949219 10.128906 20.953125 C 10.128906 20.949219 10.128906 20.945312 10.125 20.941406 C 10.128906 20.945312 10.128906 20.949219 10.132812 20.953125 C 10.132812 20.957031 10.132812 20.957031 10.132812 20.957031 C 10.132812 20.964844 10.136719 20.972656 10.136719 20.980469 C 10.136719 20.984375 10.136719 20.992188 10.136719 20.996094 C 10.136719 21.003906 10.132812 21.011719 10.132812 21.019531 C 10.128906 21.023438 10.128906 21.027344 10.125 21.03125 C 10.125 21.03125 10.121094 21.035156 10.121094 21.035156 C 10.113281 21.042969 10.109375 21.046875 10.101562 21.054688 C 10.097656 21.054688 10.09375 21.058594 10.089844 21.0625 C 10.085938 21.0625 10.085938 21.066406 10.082031 21.066406 C 10.082031 21.066406 10.0625 21.074219 10.054688 21.074219 C 10.050781 21.078125 10.042969 21.078125 10.039062 21.078125 C 10.027344 21.078125 10.015625 21.078125 10.003906 21.078125 C 10 21.078125 9.996094 21.078125 9.988281 21.078125 C 9.984375 21.074219 9.984375 21.074219 9.980469 21.074219 C 9.972656 21.070312 9.96875 21.066406 9.964844 21.0625 C 9.960938 21.0625 9.957031 21.058594 9.953125 21.054688 C 9.953125 21.054688 9.949219 21.050781 9.949219 21.050781 C 9.945312 21.042969 9.941406 21.039062 9.9375 21.03125 C 9.9375 21.027344 9.9375 21.027344 9.933594 21.023438 C 9.933594 21.015625 9.933594 21.011719 9.929688 21.007812 C 9.929688 20.996094 9.929688 20.984375 9.933594 20.972656 C 9.933594 20.957031 9.9375 20.945312 9.941406 20.933594 C 9.941406 20.929688 9.945312 20.929688 9.945312 20.925781 C 9.949219 20.917969 9.953125 20.910156 9.960938 20.90625 C 9.960938 20.902344 9.964844 20.898438 9.964844 20.894531 C 9.96875 20.894531 9.972656 20.890625 9.972656 20.890625 C 9.980469 20.886719 9.984375 20.882812 9.992188 20.878906 C 9.988281 20.878906 9.988281 20.878906 9.984375 20.878906 C 9.988281 20.878906 9.988281 20.878906 9.992188 20.878906 C 9.996094 20.875 10.003906 20.875 10.003906 20.875 C 10.003906 20.875 10.007812 20.871094 10.007812 20.871094 C 10.015625 20.871094 10.027344 20.871094 10.035156 20.875 C 10.042969 20.875 10.046875 20.875 10.054688 20.878906 C 10.054688 20.878906 10.050781 20.875 10.050781 20.875 C 10.050781 20.875 10.054688 20.878906 10.058594 20.878906 C 10.0625 20.878906 10.0625 20.882812 10.0625 20.882812 C 10.0625 20.882812 10.066406 20.882812 10.066406 20.882812 C 10.070312 20.886719 10.074219 20.890625 10.078125 20.890625 C 10.074219 20.886719 10.082031 20.890625 10.085938 20.894531 Z M 10 20.875 C 9.996094 20.875 9.996094 20.875 9.992188 20.878906 C 10 20.875 10.003906 20.875 10.003906 20.875 C 10.003906 20.875 10 20.875 10 20.875 Z M 10.132812 20.957031 C 10.132812 20.957031 10.128906 20.953125 10.128906 20.953125 C 10.132812 20.957031 10.132812 20.957031 10.132812 20.957031 Z M 10.398438 23.574219 C 10.179688 23.460938 10 23.292969 9.878906 23.074219 C 9.828125 22.980469 9.699219 23.035156 9.695312 23.121094 C 9.695312 23.128906 9.691406 23.132812 9.691406 23.136719 C 9.640625 23.371094 9.480469 23.558594 9.265625 23.660156 C 9.1875 23.695312 9.207031 23.824219 9.289062 23.839844 C 9.535156 23.886719 9.746094 24.039062 9.867188 24.261719 C 9.902344 24.324219 10.003906 24.328125 10.039062 24.261719 C 10.136719 24.0625 10.261719 23.886719 10.417969 23.730469 C 10.460938 23.6875 10.457031 23.601562 10.398438 23.574219 Z M 9.722656 27.730469 C 9.320312 27.640625 8.972656 27.402344 8.707031 27.09375 C 8.578125 26.9375 8.460938 26.765625 8.386719 26.578125 C 8.304688 26.371094 8.257812 26.152344 8.226562 25.933594 C 8.191406 25.6875 8.175781 25.4375 8.15625 25.191406 C 8.148438 25.0625 7.949219 25.0625 7.960938 25.191406 C 7.96875 25.335938 7.980469 25.480469 7.992188 25.628906 C 7.96875 25.648438 7.953125 25.683594 7.964844 25.726562 C 8 25.871094 7.96875 26.042969 7.925781 26.191406 C 7.871094 26.382812 7.789062 26.5625 7.691406 26.734375 C 7.601562 26.894531 7.5 27.046875 7.375 27.179688 C 7.222656 27.335938 7.027344 27.445312 6.832031 27.535156 C 6.578125 27.652344 6.304688 27.730469 6.035156 27.800781 C 5.929688 27.832031 5.945312 28.011719 6.0625 28 C 6.5 27.957031 7 27.929688 7.289062 28.328125 C 7.414062 28.496094 7.484375 28.695312 7.535156 28.898438 C 7.597656 29.144531 7.628906 29.402344 7.648438 29.65625 C 7.671875 29.96875 7.664062 30.28125 7.632812 30.59375 C 7.628906 30.648438 7.683594 30.695312 7.734375 30.695312 C 7.792969 30.695312 7.828125 30.648438 7.832031 30.59375 C 7.914062 29.671875 8.222656 28.679688 9.050781 28.167969 C 9.257812 28.042969 9.484375 27.957031 9.722656 27.921875 C 9.820312 27.910156 9.8125 27.75 9.722656 27.730469 Z M 8.484375 28.378906 C 8.179688 28.695312 7.972656 29.09375 7.835938 29.511719 C 7.816406 29.296875 7.78125 29.082031 7.734375 28.871094 C 7.625 28.421875 7.394531 27.980469 6.929688 27.835938 C 6.867188 27.816406 6.804688 27.800781 6.742188 27.792969 C 7.011719 27.6875 7.273438 27.554688 7.480469 27.351562 C 7.765625 27.078125 7.976562 26.691406 8.09375 26.316406 C 8.117188 26.410156 8.144531 26.5 8.179688 26.59375 C 8.335938 27.007812 8.632812 27.371094 8.996094 27.621094 C 9.101562 27.695312 9.214844 27.761719 9.335938 27.8125 C 9.011719 27.925781 8.71875 28.128906 8.484375 28.378906 Z M 4.078125 30.40625 C 4.0625 30.386719 4.035156 30.371094 4.007812 30.375 C 3.84375 30.378906 3.695312 30.488281 3.644531 30.644531 C 3.597656 30.800781 3.664062 30.976562 3.792969 31.074219 C 3.910156 31.15625 4.074219 31.152344 4.195312 31.078125 C 4.324219 30.996094 4.390625 30.851562 4.363281 30.703125 C 4.335938 30.558594 4.21875 30.441406 4.078125 30.40625 Z M 4.171875 30.757812 C 4.171875 30.753906 4.171875 30.753906 4.171875 30.75 C 4.171875 30.75 4.171875 30.753906 4.171875 30.757812 Z M 3.925781 30.921875 C 3.929688 30.921875 3.933594 30.925781 3.9375 30.925781 C 3.9375 30.929688 3.933594 30.925781 3.925781 30.921875 Z M 2.78125 21.386719 C 2.785156 21.386719 2.789062 21.386719 2.792969 21.382812 C 2.789062 21.382812 2.785156 21.382812 2.78125 21.386719 Z M 2.859375 21.574219 C 2.992188 21.539062 3.105469 21.421875 3.105469 21.277344 C 3.105469 21.195312 3.070312 21.117188 3.011719 21.0625 C 2.980469 21.03125 2.945312 21.011719 2.90625 20.996094 C 2.886719 20.988281 2.867188 20.984375 2.84375 20.980469 C 2.734375 20.914062 2.582031 20.949219 2.492188 21.042969 C 2.394531 21.148438 2.390625 21.316406 2.476562 21.433594 C 2.566406 21.554688 2.710938 21.613281 2.859375 21.574219 Z M 2.613281 21.257812 C 2.613281 21.261719 2.613281 21.265625 2.613281 21.257812 Z M 2.613281 21.25 Z M 2.707031 21.375 C 2.710938 21.378906 2.710938 21.378906 2.710938 21.378906 C 2.710938 21.378906 2.710938 21.378906 2.707031 21.375 Z M 2.867188 21.351562 C 2.871094 21.347656 2.875 21.347656 2.867188 21.351562 Z M 2.859375 21.355469 C 2.859375 21.355469 2.859375 21.355469 2.863281 21.355469 C 2.863281 21.355469 2.859375 21.355469 2.859375 21.355469 Z M 2.90625 21.292969 C 2.90625 21.296875 2.90625 21.296875 2.90625 21.292969 Z M 2.742188 21.152344 C 2.738281 21.152344 2.734375 21.148438 2.734375 21.148438 C 2.734375 21.148438 2.738281 21.152344 2.742188 21.152344 Z M 2.613281 21.230469 C 2.613281 21.230469 2.613281 21.226562 2.613281 21.226562 C 2.613281 21.226562 2.613281 21.222656 2.613281 21.222656 C 2.613281 21.222656 2.613281 21.222656 2.613281 21.226562 C 2.617188 21.21875 2.617188 21.210938 2.621094 21.203125 C 2.621094 21.199219 2.625 21.195312 2.628906 21.191406 C 2.632812 21.1875 2.636719 21.179688 2.640625 21.175781 C 2.644531 21.175781 2.644531 21.171875 2.648438 21.171875 C 2.65625 21.164062 2.667969 21.160156 2.675781 21.152344 C 2.679688 21.152344 2.6875 21.148438 2.691406 21.148438 C 2.695312 21.148438 2.699219 21.148438 2.703125 21.144531 C 2.707031 21.144531 2.714844 21.148438 2.71875 21.148438 C 2.714844 21.144531 2.71875 21.144531 2.726562 21.148438 C 2.726562 21.148438 2.726562 21.148438 2.730469 21.148438 C 2.730469 21.148438 2.726562 21.148438 2.726562 21.148438 C 2.730469 21.148438 2.730469 21.148438 2.730469 21.148438 C 2.753906 21.175781 2.789062 21.183594 2.828125 21.179688 C 2.800781 21.183594 2.824219 21.183594 2.835938 21.179688 C 2.835938 21.183594 2.835938 21.183594 2.835938 21.183594 C 2.839844 21.183594 2.84375 21.183594 2.847656 21.183594 C 2.847656 21.1875 2.855469 21.1875 2.859375 21.191406 C 2.859375 21.191406 2.863281 21.195312 2.863281 21.195312 C 2.867188 21.199219 2.871094 21.199219 2.871094 21.203125 C 2.875 21.203125 2.878906 21.207031 2.878906 21.210938 C 2.882812 21.214844 2.894531 21.222656 2.882812 21.214844 C 2.875 21.207031 2.882812 21.214844 2.886719 21.21875 C 2.890625 21.222656 2.890625 21.226562 2.894531 21.230469 C 2.894531 21.230469 2.894531 21.234375 2.898438 21.238281 C 2.898438 21.234375 2.898438 21.234375 2.898438 21.242188 C 2.898438 21.242188 2.898438 21.246094 2.898438 21.246094 C 2.902344 21.246094 2.902344 21.25 2.902344 21.25 C 2.902344 21.25 2.902344 21.246094 2.902344 21.246094 C 2.902344 21.25 2.902344 21.253906 2.90625 21.261719 C 2.90625 21.269531 2.90625 21.277344 2.90625 21.285156 C 2.90625 21.289062 2.902344 21.296875 2.902344 21.300781 C 2.902344 21.300781 2.90625 21.300781 2.898438 21.308594 C 2.898438 21.308594 2.898438 21.3125 2.898438 21.3125 C 2.898438 21.316406 2.886719 21.328125 2.882812 21.335938 C 2.878906 21.339844 2.878906 21.339844 2.875 21.34375 C 2.875 21.34375 2.867188 21.351562 2.863281 21.355469 C 2.855469 21.359375 2.847656 21.363281 2.839844 21.367188 C 2.835938 21.371094 2.832031 21.371094 2.828125 21.375 C 2.828125 21.375 2.824219 21.375 2.824219 21.375 C 2.8125 21.378906 2.804688 21.382812 2.796875 21.382812 C 2.792969 21.382812 2.792969 21.382812 2.792969 21.382812 C 2.792969 21.386719 2.792969 21.386719 2.789062 21.386719 C 2.785156 21.386719 2.785156 21.386719 2.78125 21.386719 C 2.773438 21.386719 2.765625 21.386719 2.757812 21.386719 C 2.753906 21.386719 2.75 21.386719 2.75 21.386719 C 2.75 21.386719 2.75 21.386719 2.738281 21.386719 C 2.726562 21.382812 2.71875 21.378906 2.707031 21.375 C 2.699219 21.371094 2.695312 21.371094 2.695312 21.367188 C 2.691406 21.367188 2.6875 21.363281 2.683594 21.363281 C 2.679688 21.359375 2.679688 21.359375 2.675781 21.359375 C 2.667969 21.351562 2.667969 21.351562 2.679688 21.363281 C 2.671875 21.359375 2.664062 21.347656 2.65625 21.339844 C 2.652344 21.335938 2.648438 21.328125 2.640625 21.324219 C 2.640625 21.320312 2.640625 21.320312 2.636719 21.320312 C 2.632812 21.3125 2.628906 21.304688 2.628906 21.300781 C 2.625 21.296875 2.625 21.292969 2.621094 21.289062 C 2.621094 21.289062 2.621094 21.289062 2.621094 21.285156 C 2.621094 21.285156 2.613281 21.261719 2.613281 21.253906 C 2.613281 21.246094 2.613281 21.242188 2.613281 21.238281 C 2.613281 21.238281 2.613281 21.234375 2.613281 21.230469 C 2.613281 21.234375 2.609375 21.238281 2.613281 21.230469 Z M 2.738281 21.386719 C 2.742188 21.386719 2.746094 21.386719 2.75 21.386719 C 2.746094 21.386719 2.742188 21.382812 2.738281 21.386719 Z M 2.898438 21.3125 C 2.898438 21.308594 2.898438 21.308594 2.898438 21.308594 C 2.902344 21.308594 2.902344 21.304688 2.902344 21.300781 C 2.902344 21.304688 2.898438 21.308594 2.898438 21.3125 Z M 2.726562 21.148438 C 2.726562 21.148438 2.722656 21.148438 2.71875 21.148438 C 2.722656 21.148438 2.722656 21.148438 2.726562 21.148438 Z M 2.902344 21.246094 C 2.902344 21.246094 2.898438 21.246094 2.898438 21.246094 C 2.898438 21.242188 2.898438 21.242188 2.898438 21.238281 C 2.898438 21.242188 2.898438 21.246094 2.902344 21.246094 Z M 2.613281 21.226562 C 2.613281 21.230469 2.613281 21.230469 2.613281 21.230469 C 2.613281 21.230469 2.613281 21.226562 2.613281 21.226562 Z M 10.195312 30.285156 C 10.066406 30.285156 10.066406 30.488281 10.195312 30.488281 C 10.324219 30.488281 10.324219 30.285156 10.195312 30.285156 Z M 1.488281 29.808594 C 1.476562 29.796875 1.464844 29.78125 1.449219 29.769531 C 1.441406 29.757812 1.429688 29.753906 1.417969 29.75 C 1.40625 29.742188 1.394531 29.738281 1.378906 29.738281 C 1.367188 29.738281 1.351562 29.742188 1.339844 29.75 C 1.328125 29.753906 1.320312 29.757812 1.308594 29.769531 C 1.304688 29.777344 1.300781 29.78125 1.292969 29.789062 C 1.285156 29.804688 1.28125 29.820312 1.28125 29.839844 C 1.28125 29.847656 1.28125 29.855469 1.285156 29.867188 C 1.289062 29.882812 1.296875 29.898438 1.308594 29.910156 C 1.324219 29.921875 1.335938 29.9375 1.347656 29.949219 C 1.359375 29.960938 1.367188 29.964844 1.378906 29.96875 C 1.390625 29.976562 1.40625 29.980469 1.417969 29.980469 C 1.433594 29.980469 1.445312 29.976562 1.457031 29.96875 C 1.46875 29.964844 1.480469 29.960938 1.488281 29.949219 C 1.492188 29.941406 1.5 29.9375 1.503906 29.929688 C 1.511719 29.914062 1.519531 29.898438 1.519531 29.878906 C 1.515625 29.871094 1.515625 29.859375 1.515625 29.851562 C 1.507812 29.835938 1.5 29.820312 1.488281 29.808594 Z M 0.136719 25.050781 C 0.0078125 25.050781 0.0078125 25.25 0.136719 25.25 C 0.265625 25.25 0.265625 25.050781 0.136719 25.050781 Z M 7.710938 21.734375 C 7.835938 21.734375 7.835938 21.535156 7.710938 21.535156 C 7.582031 21.535156 7.582031 21.734375 7.710938 21.734375 Z M 6.273438 18.804688 C 6.398438 18.804688 6.402344 18.605469 6.273438 18.605469 C 6.144531 18.605469 6.144531 18.804688 6.273438 18.804688 Z M 11.671875 26.417969 C 11.542969 26.417969 11.542969 26.617188 11.671875 26.617188 C 11.796875 26.617188 11.796875 26.417969 11.671875 26.417969 Z M 0.488281 20.753906 C 0.359375 20.753906 0.359375 20.953125 0.488281 20.953125 C 0.613281 20.953125 0.613281 20.753906 0.488281 20.753906 Z M 2.5 26.332031 C 2.492188 26.324219 2.484375 26.320312 2.476562 26.316406 C 2.464844 26.304688 2.445312 26.300781 2.429688 26.300781 C 2.414062 26.300781 2.402344 26.300781 2.390625 26.300781 C 2.375 26.300781 2.363281 26.304688 2.351562 26.308594 C 2.339844 26.3125 2.328125 26.320312 2.320312 26.332031 C 2.308594 26.339844 2.304688 26.351562 2.296875 26.363281 C 2.292969 26.375 2.289062 26.386719 2.289062 26.402344 C 2.292969 26.410156 2.292969 26.417969 2.292969 26.429688 C 2.296875 26.445312 2.308594 26.460938 2.320312 26.472656 C 2.324219 26.476562 2.332031 26.484375 2.339844 26.488281 C 2.355469 26.496094 2.371094 26.5 2.390625 26.5 C 2.402344 26.5 2.414062 26.5 2.429688 26.5 C 2.441406 26.5 2.453125 26.5 2.464844 26.492188 C 2.480469 26.488281 2.488281 26.480469 2.5 26.472656 C 2.507812 26.464844 2.515625 26.453125 2.519531 26.441406 C 2.523438 26.429688 2.527344 26.414062 2.527344 26.402344 C 2.527344 26.394531 2.523438 26.382812 2.523438 26.375 C 2.519531 26.359375 2.511719 26.34375 2.5 26.332031 Z M 2.5 26.332031 " fill-opacity="1" fill-rule="nonzero"/></g></svg>